<svg width="24" height="48" viewBox="0 0 24 48" fill="none" xmlns="http://www.w3.org/2000/svg">
<path d="M16.5746 15.0024L17.3214 17.908L23.1325 16.4143L22.3857 13.5088L16.5746 15.0024ZM11.7418 23.9966L10.7605 26.8316L10.7618 26.832L11.7418 23.9966ZM19.4835 32.4816L22.4826 32.5542L22.4827 32.5526L19.4835 32.4816ZM6.91033 32.9874L6.1646 30.0815L0.352927 31.573L1.09866 34.4788L6.91033 32.9874ZM14.744 3.3103V0.310303H8.744V3.3103H14.744ZM8.744 9.24733C8.744 10.9042 10.0871 12.2473 11.744 12.2473C13.4009 12.2473 14.744 10.9042 14.744 9.24733H8.744ZM8.744 44.6896V47.6896H14.744V44.6896H8.744ZM14.744 38.7526C14.744 37.0957 13.4009 35.7526 11.744 35.7526C10.0871 35.7526 8.744 37.0957 8.744 38.7526H14.744ZM22.3857 13.5088C21.2213 8.97858 16.5509 6.28556 11.8205 6.28556V12.2856C14.6463 12.2856 16.2794 13.8542 16.5746 15.0024L22.3857 13.5088ZM11.8205 6.28556C6.51996 6.28556 1 9.81107 1 15.5105H7C7 14.3305 8.48305 12.2856 11.8205 12.2856V6.28556ZM1 15.5105C1 18.2164 2.31813 20.656 4.04214 22.5176C5.78961 24.4046 8.15246 25.9289 10.7605 26.8316L12.723 21.1616C10.9907 20.562 9.48269 19.562 8.44437 18.4408C7.38259 17.2943 7 16.2419 7 15.5105H1ZM10.7618 26.832C12.5662 27.4556 14.0898 28.4081 15.1079 29.4701C16.1208 30.5267 16.505 31.5382 16.4843 32.4106L22.4827 32.5526C22.5509 29.6716 21.2344 27.1906 19.4392 25.318C17.6493 23.4509 15.2576 22.0375 12.7217 21.1611L10.7618 26.832ZM16.4844 32.409C16.4531 33.7039 14.9243 35.7076 11.6642 35.7076V41.7076C17.042 41.7076 22.3475 38.1363 22.4826 32.5542L16.4844 32.409ZM11.6642 35.7076C8.84067 35.7076 7.20524 34.1365 6.91033 32.9874L1.09866 34.4788C2.26103 39.0081 6.93145 41.7076 11.6642 41.7076V35.7076ZM8.744 3.3103V9.24733H14.744V3.3103H8.744ZM14.744 44.6896V38.7526H8.744V44.6896H14.744Z" fill="#F36422"/>
</svg>
