<svg width="238" height="101" viewBox="0 0 238 101" fill="none" xmlns="http://www.w3.org/2000/svg">
<path d="M99.559 70.5798L88.2389 59.2597C89.6764 57.2831 90.6646 55.2599 91.2037 53.1899C91.7427 51.12 92.0123 49.0105 92.0123 46.8615C92.0123 44.7052 91.7427 42.5922 91.2037 40.5222C90.6646 38.4522 89.6764 36.5224 88.2389 34.7328L99.559 23.1431C102.434 26.5571 104.59 30.3305 106.028 34.4632C107.465 38.596 108.184 42.7287 108.184 46.8615C108.184 50.9942 107.465 55.0838 106.028 59.1303C104.59 63.1768 102.434 66.9933 99.559 70.5798ZM122.469 93.759L110.879 82.1694C115.371 77.1382 118.742 71.568 120.992 65.4588C123.241 59.3495 124.363 53.1504 124.355 46.8615C124.355 40.5725 123.234 34.4201 120.992 28.4043C118.749 22.3885 115.378 16.8614 110.879 11.823L122.469 0.233398C128.578 6.88172 133.117 14.2056 136.085 22.2052C139.054 30.2047 140.534 38.4235 140.527 46.8615C140.527 55.3066 139.043 63.5721 136.074 71.6579C133.106 79.7437 128.571 87.1107 122.469 93.759ZM43.4975 57.6425C37.5679 57.6425 32.4901 55.5294 28.2639 51.3032C24.0377 47.0771 21.9282 42.0028 21.9354 36.0804C21.9354 30.1508 24.0485 25.0729 28.2747 20.8468C32.5008 16.6206 37.5751 14.5111 43.4975 14.5183C49.4271 14.5183 54.505 16.6314 58.7311 20.8576C62.9573 25.0837 65.0668 30.158 65.0596 36.0804C65.0596 42.01 62.9465 47.0879 58.7204 51.314C54.4942 55.5402 49.4199 57.6497 43.4975 57.6425ZM0.373291 100.767V94.5676C0.373291 90.2552 1.54124 86.3021 3.87713 82.7085C6.21303 79.1148 9.44734 76.4195 13.5801 74.6227C18.2519 72.6461 23.0602 71.1188 28.0051 70.0407C32.95 68.9626 38.1142 68.4236 43.4975 68.4236C48.888 68.4236 54.0558 68.9626 59.0007 70.0407C63.9456 71.1188 68.7503 72.6461 73.4149 74.6227C77.5477 76.4195 80.782 79.1148 83.1179 82.7085C85.4538 86.3021 86.6217 90.2552 86.6217 94.5676V100.767H0.373291ZM194.432 57.6425C188.503 57.6425 183.425 55.5294 179.199 51.3032C174.972 47.0771 172.863 42.0028 172.87 36.0804C172.87 30.1508 174.983 25.0729 179.209 20.8468C183.436 16.6206 188.51 14.5111 194.432 14.5183C200.362 14.5183 205.44 16.6314 209.666 20.8576C213.892 25.0837 216.002 30.158 215.994 36.0804C215.994 42.01 213.881 47.0879 209.655 51.314C205.429 55.5402 200.355 57.6497 194.432 57.6425ZM151.308 100.767V94.5676C151.308 90.2552 152.476 86.3021 154.812 82.7085C157.148 79.1148 160.382 76.4195 164.515 74.6227C169.187 72.6461 173.991 71.1188 178.929 70.0407C183.867 68.9626 189.035 68.4236 194.432 68.4236C199.823 68.4236 204.987 68.9626 209.925 70.0407C214.862 71.1188 219.671 72.6461 224.35 74.6227C228.482 76.4195 231.717 79.1148 234.053 82.7085C236.389 86.3021 237.556 90.2552 237.556 94.5676V100.767H151.308Z" fill="#292A2D"/>
</svg>
