<svg width="48" height="46" viewBox="0 0 48 46" fill="none" xmlns="http://www.w3.org/2000/svg">
<path d="M47.1286 33.2147L11.0809 1.51984L0.515977 13.5357L36.5636 45.2306L47.1286 33.2147ZM31.9954 35.8877L37.2778 29.8797L40.8826 33.0492L35.6001 39.0571L31.9954 35.8877ZM22.0199 21.7905L25.6247 24.96C26.5807 25.8006 27.7759 26.2902 28.9472 26.3213C30.1186 26.3523 31.1702 25.9222 31.8707 25.1255L35.4755 28.295L30.193 34.3029L12.1691 18.4555L17.4516 12.4475L21.0564 15.617C20.3559 16.4137 20.0639 17.5117 20.2446 18.6695C20.4253 19.8272 21.0639 20.9499 22.0199 21.7905ZM6.76199 13.7012L12.0445 7.6933L15.6492 10.8628L10.3668 16.8707L6.76199 13.7012Z" fill="#F36422"/>
<path d="M11.5186 25.8703L15.3186 29.2138L8.17267 37.5546L8.40208 41.125L11.9725 40.8956L19.1184 32.5548L22.9182 35.8958L14.844 45.2977L4.13033 45.9861L3.44209 35.275L11.5188 25.8729L11.5186 25.8703ZM24.725 10.853L32.5883 1.60242C32.8077 1.35258 33.0742 1.14845 33.3726 1.00168C33.6709 0.854914 33.9953 0.768396 34.3271 0.747075C34.659 0.725753 34.9917 0.770046 35.3064 0.87742C35.6211 0.984794 35.9116 1.15314 36.1612 1.37284L43.7608 8.05479C44.2646 8.49789 44.5718 9.12294 44.6148 9.79248C44.6578 10.462 44.4331 11.1213 43.9902 11.6252L36.1272 20.8808L32.3246 17.535L38.5201 10.1866L34.7176 6.8433L28.5273 14.1938L24.725 10.853Z" fill="#F36422"/>
</svg>
