<svg width="207" height="102" viewBox="0 0 207 102" fill="none" xmlns="http://www.w3.org/2000/svg">
<path d="M63.9481 12.6787C68.8597 12.6787 73.5702 14.6298 77.0432 18.1028C80.5163 21.5759 82.4674 26.2863 82.4674 31.198C82.4674 36.1096 80.5163 40.82 77.0432 44.2931C73.5702 47.7661 68.8597 49.7173 63.9481 49.7173C59.0365 49.7173 54.326 47.7661 50.853 44.2931C47.3799 40.82 45.4288 36.1096 45.4288 31.198C45.4288 26.2863 47.3799 21.5759 50.853 18.1028C54.326 14.6298 59.0365 12.6787 63.9481 12.6787ZM26.9095 25.9067C29.8726 25.9067 32.624 26.7004 35.0051 28.1291C34.2114 35.6955 36.4337 43.2091 40.9842 49.0823C38.3386 54.1619 33.0473 57.6541 26.9095 57.6541C22.6995 57.6541 18.662 55.9817 15.6851 53.0048C12.7082 50.0279 11.0358 45.9904 11.0358 41.7804C11.0358 37.5705 12.7082 33.5329 15.6851 30.556C18.662 27.5791 22.6995 25.9067 26.9095 25.9067ZM100.987 25.9067C105.197 25.9067 109.234 27.5791 112.211 30.556C115.188 33.5329 116.86 37.5705 116.86 41.7804C116.86 45.9904 115.188 50.0279 112.211 53.0048C109.234 55.9817 105.197 57.6541 100.987 57.6541C94.8489 57.6541 89.5576 54.1619 86.912 49.0823C91.5253 43.1266 93.6666 35.6225 92.8911 28.1291C95.2722 26.7004 98.0236 25.9067 100.987 25.9067ZM29.5551 80.1418C29.5551 69.189 44.9526 60.2997 63.9481 60.2997C82.9436 60.2997 98.3411 69.189 98.3411 80.1418V89.4015H29.5551V80.1418ZM0.453369 89.4015V81.4646C0.453369 74.1098 10.4538 67.9191 23.9993 66.1201C20.8775 69.7181 18.9727 74.6919 18.9727 80.1418V89.4015H0.453369ZM127.443 89.4015H108.924V80.1418C108.924 74.6919 107.019 69.7181 103.897 66.1201C117.442 67.9191 127.443 74.1098 127.443 81.4646V89.4015Z" fill="#292A2D"/>
<path d="M148.608 45.7487H138.025V56.3312L148.608 56.1989V96.0154H169.773V85.4329H159.19V56.3312H169.773V45.7487H159.19V16.6205L169.773 16.6469V6.06448H148.608V45.7487Z" fill="#292A2D"/>
<path d="M191.526 20.1745L201.888 9.8125L199.83 7.7548L191.526 16.0591L187.337 11.8702L185.279 13.9279L191.526 20.1745ZM183.295 27.2295C182.486 27.2295 181.794 26.9414 181.218 26.3652C180.642 25.7891 180.354 25.0973 180.355 24.2899V3.71289C180.355 2.90451 180.643 2.21224 181.219 1.63608C181.796 1.05993 182.487 0.772338 183.295 0.773318H203.872C204.68 0.773318 205.372 1.0614 205.949 1.63755C206.525 2.21371 206.812 2.90549 206.811 3.71289V24.2899C206.811 25.0983 206.523 25.7905 205.947 26.3667C205.371 26.9428 204.679 27.2304 203.872 27.2295H183.295Z" fill="#292A2D"/>
<path d="M191.526 57.2131L201.888 46.8511L199.83 44.7934L191.526 53.0977L187.337 48.9088L185.279 50.9665L191.526 57.2131ZM183.295 64.2681C182.486 64.2681 181.794 63.98 181.218 63.4038C180.642 62.8277 180.354 62.1359 180.355 61.3285V40.7515C180.355 39.9431 180.643 39.2508 181.219 38.6747C181.796 38.0985 182.487 37.8109 183.295 37.8119H203.872C204.68 37.8119 205.372 38.1 205.949 38.6761C206.525 39.2523 206.812 39.9441 206.811 40.7515V61.3285C206.811 62.1369 206.523 62.8291 205.947 63.4053C205.371 63.9814 204.679 64.269 203.872 64.2681H183.295Z" fill="#292A2D"/>
<path d="M191.526 94.2517L201.888 83.8897L199.83 81.832L191.526 90.1363L187.337 85.9474L185.279 88.0051L191.526 94.2517ZM183.295 101.307C182.486 101.307 181.794 101.019 181.218 100.442C180.642 99.8662 180.354 99.1745 180.355 98.3671V77.7901C180.355 76.9817 180.643 76.2894 181.219 75.7133C181.796 75.1371 182.487 74.8495 183.295 74.8505H203.872C204.68 74.8505 205.372 75.1386 205.949 75.7147C206.525 76.2909 206.812 76.9827 206.811 77.7901V98.3671C206.811 99.1755 206.523 99.8677 205.947 100.444C205.371 101.02 204.679 101.308 203.872 101.307H183.295Z" fill="#292A2D"/>
</svg>
