<svg width="60" height="60" viewBox="0 0 60 60" fill="none" xmlns="http://www.w3.org/2000/svg">
<path d="M29.8139 48.51L15.8188 59.1954C15.1253 59.7628 14.3688 60.0301 13.5493 59.9973C12.7298 59.9671 12.0048 59.7313 11.3744 59.29C10.744 58.8487 10.256 58.2498 9.91057 57.4933C9.56259 56.7368 9.5462 55.9173 9.8614 55.0347L15.2514 37.5409L1.54 27.8011C0.783509 27.2967 0.310702 26.6348 0.121579 25.8153C-0.067544 24.9957 -0.0360232 24.2392 0.216141 23.5458C0.468304 22.8523 0.90959 22.2371 1.54 21.6999C2.17041 21.1654 2.9269 20.8981 3.80947 20.8981H20.736L26.2205 2.74228C26.5357 1.85971 27.0249 1.18139 27.6881 0.70732C28.3488 0.235774 29.0574 0 29.8139 0C30.5703 0 31.2789 0.235774 31.9396 0.70732C32.6028 1.18139 33.092 1.85971 33.4072 2.74228L38.8918 20.8981H55.8182C56.7008 20.8981 57.4573 21.1654 58.0877 21.6999C58.7181 22.2371 59.1594 22.8523 59.4116 23.5458C59.6637 24.2392 59.6953 24.9957 59.5061 25.8153C59.317 26.6348 58.8442 27.2967 58.0877 27.8011L44.3763 37.5409L49.7663 55.0347C50.0815 55.9173 50.0664 56.7368 49.7209 57.4933C49.3729 58.2498 48.8837 58.8487 48.2533 59.29C47.6229 59.7313 46.8979 59.9671 46.0784 59.9973C45.2589 60.0301 44.5024 59.7628 43.8089 59.1954L29.8139 48.51Z" fill="#F36422"/>
</svg>
