<svg width="108" height="109" viewBox="0 0 108 109" fill="none" xmlns="http://www.w3.org/2000/svg">
<path d="M29.3667 44.4467V104.767ZM69.5801 23.7369L64.5534 44.4467H93.8589C95.4196 44.4467 96.9589 44.8101 98.3548 45.5081C99.7508 46.2061 100.965 47.2195 101.902 48.4681C102.838 49.7167 103.471 51.1661 103.75 52.7017C104.029 54.2372 103.947 55.8167 103.51 57.315L91.7979 97.5283C91.1889 99.6166 89.9189 101.451 88.1787 102.756C86.4385 104.061 84.322 104.767 82.1467 104.767H14.2867C11.6204 104.767 9.06332 103.708 7.17795 101.822C5.29259 99.9368 4.2334 97.3797 4.2334 94.7134V54.5001C4.2334 51.8338 5.29259 49.2767 7.17795 47.3913C9.06332 45.5059 11.6204 44.4467 14.2867 44.4467H28.1603C30.0307 44.4457 31.8637 43.923 33.4532 42.9373C35.0427 41.9516 36.3258 40.5421 37.1581 38.8671L54.5001 4.2334C56.8705 4.26275 59.2037 4.8274 61.3253 5.88514C63.4469 6.94289 65.302 8.46639 66.7521 10.3418C68.2022 12.2172 69.2097 14.3961 69.6994 16.7156C70.1891 19.0351 70.1483 21.4353 69.5801 23.7369Z" fill="#292A2D"/>
<path d="M29.3667 44.4467V104.767M69.5801 23.7369L64.5534 44.4467H93.8589C95.4196 44.4467 96.9589 44.8101 98.3548 45.5081C99.7508 46.2061 100.965 47.2195 101.902 48.4681C102.838 49.7167 103.471 51.1661 103.75 52.7017C104.029 54.2372 103.947 55.8167 103.51 57.315L91.7979 97.5283C91.1889 99.6166 89.9189 101.451 88.1787 102.756C86.4385 104.061 84.322 104.767 82.1467 104.767H14.2867C11.6204 104.767 9.06332 103.708 7.17795 101.822C5.29259 99.9368 4.2334 97.3797 4.2334 94.7134V54.5001C4.2334 51.8338 5.29259 49.2767 7.17795 47.3913C9.06332 45.5059 11.6204 44.4467 14.2867 44.4467H28.1603C30.0307 44.4457 31.8637 43.923 33.4532 42.9373C35.0427 41.9516 36.3258 40.5421 37.1581 38.8671L54.5001 4.2334C56.8705 4.26275 59.2037 4.8274 61.3253 5.88514C63.4469 6.94289 65.302 8.46639 66.7521 10.3418C68.2022 12.2172 69.2097 14.3961 69.6994 16.7156C70.1891 19.0351 70.1483 21.4353 69.5801 23.7369Z" stroke="white" stroke-width="8" stroke-linecap="round" stroke-linejoin="round"/>
</svg>
